<svg width="94" height="50" viewBox="0 0 94 50" fill="none" xmlns="http://www.w3.org/2000/svg">
<g clip-path="url(#clip0_10_6)">
<path d="M44.0715 26.497C43.8868 26.4965 43.7083 26.5634 43.5695 26.6852C43.4305 26.8071 43.3408 26.9756 43.3174 27.159L43.3174 27.1591C43.1424 28.532 42.8323 29.8844 42.3916 31.1965C41.6595 33.3692 40.3555 35.1551 38.4726 36.5595L38.4723 36.5597L44.071 26.797M44.0715 26.497C44.0717 26.497 44.0719 26.497 44.0721 26.497L44.071 26.797M44.0715 26.497H44.071V26.797M44.0715 26.497L49.8669 26.497L49.867 26.797M44.071 26.797H49.867M49.867 26.797V26.497M49.867 26.797V26.497M49.867 26.497C49.9766 26.497 50.0848 26.5206 50.1844 26.5663C50.284 26.6119 50.3726 26.6786 50.4441 26.7617C50.5155 26.8447 50.5682 26.9423 50.5985 27.0476C50.6288 27.1529 50.636 27.2635 50.6196 27.3719L50.6195 27.3725C50.0689 30.9635 48.6231 33.9539 46.2764 36.3298C43.2389 39.4051 37.6887 40.9766 29.7318 41.1309L29.7316 41.1309C29.7101 41.1313 29.6889 41.136 29.6693 41.1447C29.6496 41.1535 29.632 41.166 29.6172 41.1817C29.6025 41.1973 29.5911 41.2158 29.5836 41.2359C29.5762 41.256 29.5728 41.2775 29.5737 41.2989L29.5737 41.2991C29.609 42.1208 29.6269 42.7583 29.627 43.2093M49.867 26.497L50.323 27.327C49.781 30.8617 48.361 33.7923 46.063 36.119C43.1123 39.1063 37.6667 40.677 29.726 40.831C29.6645 40.8321 29.6039 40.8456 29.5476 40.8705C29.4914 40.8955 29.4407 40.9314 29.3986 40.9762C29.3565 41.0211 29.3238 41.0738 29.3024 41.1315C29.281 41.1892 29.2713 41.2505 29.274 41.312C29.3093 42.134 29.327 42.7673 29.327 43.212M29.627 43.2093C29.627 43.2085 29.627 43.2076 29.627 43.2067L29.327 43.212M29.627 43.2093C29.6396 43.9133 29.686 44.4946 29.7641 44.9568C29.843 45.4239 29.9509 45.7483 30.0734 45.9528C30.3127 46.3525 30.8625 46.7075 31.8299 46.964L31.8328 46.9648C32.7236 47.2107 33.64 47.3524 34.5634 47.3872M29.627 43.2093C29.627 43.2102 29.627 43.2111 29.627 43.212H29.327M29.327 43.212C29.3523 44.64 29.5153 45.605 29.816 46.107C30.1167 46.609 30.7623 46.9913 31.753 47.254C32.6665 47.5061 33.6061 47.6514 34.553 47.687M7.54376 26.5C7.72829 26.4997 7.90659 26.5667 8.04532 26.6884C8.18412 26.8102 8.27378 26.9783 8.29751 27.1614L8.29776 27.1633L8.29775 27.1633C8.48801 28.7081 8.86783 30.2235 9.42862 31.6753C10.2984 33.901 11.6582 35.6162 13.507 36.8334L13.507 36.8335C15.2689 37.9939 18.0881 38.6297 22.0151 38.696L22.0159 38.6961C22.0373 38.6965 22.0585 38.6926 22.0784 38.6847C22.0983 38.6768 22.1165 38.665 22.1317 38.65C22.147 38.635 22.1592 38.6171 22.1675 38.5974C22.1757 38.5777 22.18 38.5566 22.18 38.5353C22.18 38.5352 22.18 38.5351 22.18 38.5351L22.48 38.535L1.744 26.8C1.67779 26.8001 1.61239 26.8145 1.55225 26.8422C1.49211 26.8699 1.43863 26.9102 1.39545 26.9604C1.35228 27.0106 1.32043 27.0695 1.30206 27.1331C1.28369 27.1967 1.27924 27.2635 1.289 27.329C1.855 31.1097 3.40334 34.142 5.934 36.426M7.54376 26.5H7.544V26.8L7.54347 26.5C7.54357 26.5 7.54366 26.5 7.54376 26.5ZM7.54376 26.5H1.744V26.5L1.74338 26.5C1.63409 26.5002 1.52613 26.524 1.42684 26.5697C1.32756 26.6154 1.23928 26.6819 1.16801 26.7648C1.09674 26.8476 1.04416 26.9449 1.01384 27.0499C0.983513 27.1549 0.976162 27.2652 0.992283 27.3733L0.992308 27.3734C1.56727 31.2139 3.14447 34.3125 5.733 36.6487M5.733 36.6487C9.00742 39.6084 14.4194 41.0835 21.8916 41.143L21.8928 41.143C21.9143 41.1431 21.9356 41.1475 21.9554 41.1559C21.9752 41.1643 21.9931 41.1767 22.008 41.1921C22.0229 41.2076 22.0346 41.2259 22.0424 41.2459C22.0501 41.2658 22.0537 41.287 22.0532 41.3083L22.0532 41.3081L22.353 41.318M5.733 36.6487C5.73294 36.6487 5.73289 36.6486 5.73283 36.6486L5.934 36.426M5.733 36.6487L5.934 36.426M22.353 41.318L22.0531 41.3089L21.9932 43.1281L21.9931 43.1281L21.993 43.1329C21.9684 44.5897 21.8159 45.5216 21.5751 45.9911C21.4765 46.1832 21.2735 46.3769 20.9178 46.5547C20.5632 46.732 20.079 46.8823 19.455 46.9991M22.353 41.318L22.293 43.138C22.2683 44.5933 22.118 45.59 21.842 46.128C21.566 46.666 20.7887 47.0547 19.51 47.294M22.353 41.318C22.3549 41.2565 22.3444 41.1952 22.3222 41.1377C22.3 41.0803 22.2665 41.0279 22.2237 40.9836C22.1809 40.9394 22.1297 40.9041 22.0731 40.88C22.0165 40.8558 21.9556 40.8432 21.894 40.843C14.446 40.7837 9.126 39.3113 5.934 36.426M19.455 46.9991C18.1791 47.2372 17.397 47.365 17.0867 47.3894M19.455 46.9991L19.51 47.294M19.455 46.9991C19.4549 46.9991 19.4549 46.9991 19.4548 46.9991L19.51 47.294M17.0867 47.3894C16.4225 47.4106 15.8712 47.4541 15.4364 47.5213C15.0099 47.5872 14.6611 47.6806 14.4297 47.8219L14.4296 47.8219L14.423 47.8261C14.2633 47.9295 14.1487 48.0895 14.1023 48.274M17.0867 47.3894C17.0889 47.3893 17.0912 47.3892 17.0935 47.3891L17.103 47.689M17.0867 47.3894C17.0846 47.3895 17.0824 47.3897 17.0804 47.3899L17.103 47.689M14.1023 48.274C14.056 48.4529 14.0243 48.6353 14.0074 48.8193C13.9971 48.9232 14.0083 49.0281 14.0404 49.1275C14.0726 49.2273 14.1251 49.3194 14.1947 49.3979C14.2642 49.4764 14.3492 49.5397 14.4444 49.5838C14.5395 49.6278 14.6427 49.6517 14.7475 49.6539L14.754 49.354M14.1023 48.274C14.1024 48.2736 14.1025 48.2732 14.1026 48.2729L14.393 48.348M14.1023 48.274C14.1022 48.2744 14.102 48.2749 14.1019 48.2753L14.393 48.348M14.754 49.354L14.7477 49.6539L19.3535 49.7539L19.3535 49.7541L19.3635 49.754L25.828 49.679M14.754 49.354L19.36 49.454L25.828 49.379M14.754 49.354C14.6905 49.3527 14.628 49.3382 14.5704 49.3115C14.5128 49.2849 14.4614 49.2466 14.4193 49.199C14.3772 49.1515 14.3454 49.0958 14.3259 49.0354C14.3064 48.9749 14.2996 48.9112 14.306 48.848C14.3215 48.6793 14.3506 48.512 14.393 48.348M25.828 49.679L32.2925 49.754V49.7541L32.3005 49.754L36.8715 49.686L36.8721 49.6859C36.9755 49.6842 37.0775 49.6614 37.1718 49.6189C37.2661 49.5765 37.3508 49.5153 37.4207 49.4391C37.4906 49.3628 37.5443 49.2732 37.5784 49.1755C37.6124 49.0782 37.6264 48.9751 37.6194 48.8722M25.828 49.679L25.8245 49.679L25.828 49.379M25.828 49.679L25.8315 49.679L25.828 49.379M37.6194 48.8722C37.6072 48.688 37.5844 48.5045 37.5511 48.3229L37.5508 48.3214C37.5303 48.2126 37.4862 48.1096 37.4216 48.0196C37.3571 47.9296 37.2736 47.8548 37.1771 47.8005L37.1752 47.7995C36.9389 47.6688 36.5949 47.5794 36.1737 47.5156C35.745 47.4507 35.2072 47.4084 34.5634 47.3872M37.6194 48.8722L37.32 48.892M37.6194 48.8722C37.6193 48.8719 37.6193 48.8715 37.6193 48.8712L37.32 48.892M34.5634 47.3872C34.5637 47.3872 34.564 47.3872 34.5643 47.3872L34.553 47.687M34.5634 47.3872C34.5633 47.3872 34.5631 47.3872 34.5629 47.3872L34.553 47.687M34.553 47.687C35.8283 47.729 36.654 47.854 37.03 48.062C37.0884 48.0948 37.1389 48.14 37.1779 48.1945C37.2169 48.2489 37.2436 48.3112 37.256 48.377C37.2872 48.5473 37.3086 48.7192 37.32 48.892M37.32 48.892C37.3244 48.9546 37.3159 49.0173 37.2952 49.0765C37.2745 49.1357 37.242 49.1901 37.1996 49.2363C37.1572 49.2825 37.1059 49.3196 37.0487 49.3454C36.9915 49.3711 36.9297 49.3849 36.867 49.386L32.296 49.454L25.828 49.379M14.393 48.348C14.4208 48.2368 14.4898 48.1403 14.586 48.078C14.942 47.8607 15.781 47.731 17.103 47.689M17.103 47.689C17.429 47.6643 18.2313 47.5327 19.51 47.294" stroke="white" stroke-width="0.6"/>
<path d="M43.1965 20.4098L43.1964 20.4089C42.6137 17.0219 41.1962 14.415 38.9582 12.5616C36.7164 10.7051 33.6238 9.58178 29.6523 9.21692C29.6304 9.21524 29.6083 9.21806 29.5875 9.2252C29.5663 9.23244 29.5469 9.24399 29.5305 9.25911C29.514 9.27423 29.5008 9.29259 29.4918 9.31304C29.4828 9.33336 29.4781 9.35531 29.478 9.37752C29.478 9.37766 29.478 9.3778 29.478 9.37794L29.478 20.277C29.478 20.3768 29.4583 20.4756 29.4202 20.5679C29.382 20.6601 29.326 20.7438 29.2554 20.8144C29.1848 20.885 29.1011 20.941 29.0088 20.9792C28.9166 21.0174 28.8178 21.037 28.718 21.037H22.9187H22.918V20.737L43.1965 20.4098ZM43.1965 20.4098C43.2274 20.586 43.3195 20.7456 43.4568 20.8604C43.5938 20.9751 43.767 21.0376 43.9457 21.037L43.1965 20.4098ZM50.5017 20.1248L50.5019 20.1259C50.5245 20.2364 50.5222 20.3505 50.4952 20.46C50.4682 20.5694 50.4171 20.6715 50.3457 20.7588C50.2742 20.846 50.1843 20.9163 50.0823 20.9644C49.9803 21.0125 49.8689 21.0373 49.7562 21.037M50.5017 20.1248L43.945 20.737L43.9462 21.037L49.7562 21.037M50.5017 20.1248C49.7666 16.5983 47.9323 13.7246 45.009 11.5137L45.0089 11.5137M50.5017 20.1248L45.0089 11.5137M49.7562 21.037L49.757 20.737V21.037H49.7562ZM45.0089 11.5137C41.205 8.63872 36.0984 7.18248 29.7192 7.11403L29.7179 7.11402M45.0089 11.5137L29.7179 7.11402M29.7179 7.11402C29.6966 7.11388 29.6755 7.10951 29.6559 7.10117C29.6363 7.09282 29.6185 7.08066 29.6036 7.06538C29.5887 7.05011 29.577 7.03204 29.5692 7.01221C29.5615 6.99264 29.5576 6.97174 29.5579 6.95071C29.5891 5.78029 29.6954 4.89486 29.8687 4.2813C30.0479 3.64667 30.2714 3.39755 30.4576 3.33201C31.1282 3.09609 32.5949 2.86024 34.8984 2.63357L34.9001 2.63339M29.7179 7.11402L34.9001 2.63339M34.9001 2.63339C35.9549 2.52345 36.6943 2.43292 37.1106 2.36172L37.1119 2.36148M34.9001 2.63339L37.1119 2.36148M37.1119 2.36148C37.2709 2.33354 37.4168 2.2558 37.5287 2.13948C37.6403 2.02346 37.7122 1.87505 37.7341 1.7156M37.1119 2.36148L37.437 1.67401M13.8517 1.39167L13.8518 1.39167C13.8441 1.28609 13.8587 1.18009 13.8944 1.08046C13.9302 0.980837 13.9864 0.889791 14.0594 0.813174C14.1325 0.736556 14.2207 0.676064 14.3185 0.635581C14.416 0.595207 14.5209 0.575624 14.6265 0.578079L14.6258 0.578066L14.62 0.87801L13.8517 1.39167ZM13.8517 1.39167L13.8522 1.3969M13.8517 1.39167L13.8522 1.3969M37.77 1.39849C37.7788 1.29214 37.7651 1.18512 37.7297 1.08443C37.6943 0.983575 37.6379 0.891351 37.5643 0.813822C37.4907 0.736293 37.4015 0.675218 37.3026 0.634605C37.2043 0.594258 37.0987 0.575009 36.9926 0.578098C36.9919 0.578118 36.9912 0.57814 36.9904 0.578162L25.828 0.793954L37.471 1.37401M37.77 1.39849C37.77 1.39868 37.77 1.39887 37.77 1.39905L37.471 1.37401M37.77 1.39849C37.77 1.39831 37.77 1.39812 37.7701 1.39793L37.471 1.37401M37.77 1.39849C37.7614 1.50605 37.7486 1.61208 37.7341 1.7156M37.471 1.37401C37.463 1.47401 37.451 1.57401 37.437 1.67401M37.7341 1.7156C37.7342 1.7152 37.7342 1.71479 37.7343 1.71438L37.437 1.67401M37.7341 1.7156L37.437 1.67401M13.8522 1.3969C13.8615 1.50066 13.8731 1.60549 13.8878 1.71112M13.8522 1.3969L14.5145 2.35874M14.5145 2.35874L14.5145 2.35873C14.3547 2.33143 14.2077 2.25386 14.095 2.13728C13.9824 2.02085 13.9098 1.87157 13.8878 1.71112M14.5145 2.35874L14.5172 2.35917M14.5145 2.35874L14.5172 2.35917M13.8878 1.71112C13.8878 1.71092 13.8878 1.71073 13.8878 1.71053L14.185 1.67001L13.8879 1.7116C13.8879 1.71144 13.8879 1.71128 13.8878 1.71112ZM14.5172 2.35917C14.9385 2.42724 15.679 2.5183 16.7327 2.63228L16.7345 2.63246M14.5172 2.35917L16.7345 2.63246M16.7345 2.63246C17.9596 2.75749 18.9542 2.88213 19.7201 3.00615C20.4928 3.13128 21.012 3.2527 21.2996 3.36535L21.4088 3.08661L21.2992 3.36519C21.3696 3.39286 21.4589 3.46161 21.5553 3.61742C21.6517 3.77334 21.7436 3.99818 21.8245 4.30318C21.9863 4.91309 22.0908 5.79097 22.1312 6.94854C22.1318 6.96976 22.1281 6.9909 22.1205 7.01071C22.1128 7.03064 22.1011 7.04883 22.0863 7.06419C22.0714 7.07956 22.0537 7.0918 22.034 7.10018C22.0143 7.10857 21.9932 7.11293 21.9718 7.11301L21.9699 7.11303M16.7345 2.63246L21.9699 7.11303M21.9699 7.11303C15.58 7.18013 10.4593 8.63703 6.63756 11.5143L6.63749 11.5144M21.9699 7.11303L6.63749 11.5144M6.63749 11.5144C3.70221 13.7257 1.85869 16.5993 1.11741 20.1253L1.11722 20.1262L6.63749 11.5144ZM8.42067 20.4108L8.42051 20.4118C8.38965 20.588 8.29747 20.7476 8.16026 20.8624C8.02318 20.9771 7.85 21.0396 7.67129 21.039H7.672V20.7391L7.67078 21.039L8.42067 20.4108ZM8.42067 20.4108C9.00237 17.0245 10.4194 14.418 12.6576 12.5646C14.8998 10.7078 17.9937 9.58414 21.9673 9.21877L8.42067 20.4108ZM1.86299 21.039L1.862 20.739V21.039L1.86299 21.039ZM22.144 9.37937L22.158 20.278L22.0335 9.22649C22.0548 9.23362 22.0743 9.24511 22.091 9.26021C22.1076 9.27531 22.1209 9.2937 22.13 9.31421C22.1391 9.33467 22.1439 9.3568 22.144 9.37919C22.144 9.37925 22.144 9.37931 22.144 9.37937ZM1.411 20.187L1.41071 20.187L1.411 20.187Z" stroke="white" stroke-width="0.6"/>
<path d="M85.3277 31.7466L85.3273 31.7449C84.9451 30.3243 84.2455 29.0088 83.2813 27.8977C83.281 27.8973 83.2807 27.897 83.2804 27.8967L83.2775 27.8933C83.2425 27.8538 83.2029 27.8089 83.162 27.759C83.0664 27.651 83.0035 27.518 82.9808 27.3755C82.9576 27.2302 82.9772 27.0813 83.0371 26.9469C83.097 26.8125 83.1947 26.6985 83.3183 26.6186C83.4417 26.5388 83.5856 26.4966 83.7325 26.497M85.3277 31.7466L90.1112 26.497M85.3277 31.7466C85.7379 33.2373 85.9384 34.4754 85.939 35.4672C85.939 36.7754 85.6534 38.1411 85.075 39.5662L85.0742 39.5683C84.531 40.936 83.7076 42.175 82.6571 43.2057C81.5992 44.2384 80.7013 44.9355 79.9608 45.3162L79.9589 45.3172C78.3294 46.1698 76.2981 46.6883 73.8544 46.861H73.8253C72.2595 46.848 70.9501 46.7422 69.8934 46.5465C68.8331 46.3501 68.0463 46.0666 67.511 45.7111C66.3939 44.9691 65.7715 44.1043 65.5869 43.1229C65.4916 42.6088 65.4074 41.4905 65.3383 39.7439C65.2694 38.0056 65.216 35.665 65.178 32.7211V29.525L65.208 27.271L65.208 27.2709C65.2093 27.1703 65.1906 27.0704 65.153 26.977C65.1154 26.8837 65.0596 26.7987 64.9889 26.7271C64.9182 26.6555 64.834 26.5986 64.7411 26.5598C64.6483 26.521 64.5486 26.501 64.448 26.501C64.448 26.501 64.448 26.501 64.448 26.501H59.055C58.8534 26.501 58.6601 26.5811 58.5176 26.7236C58.3751 26.8661 58.295 27.0594 58.295 27.261V27.2648V27.2685V27.2723V27.2761V27.2798V27.2836V27.2874V27.2911V27.2949V27.2987V27.3024V27.3062V27.31V27.3137V27.3175V27.3213V27.325V27.3288V27.3326V27.3364V27.3401V27.3439V27.3477V27.3514V27.3552V27.359V27.3627V27.3665V27.3703V27.3741V27.3778V27.3816V27.3854V27.3891V27.3929V27.3967V27.4005V27.4042V27.408V27.4118V27.4156V27.4193V27.4231V27.4269V27.4307V27.4344V27.4382V27.442V27.4458V27.4495V27.4533V27.4571V27.4609V27.4646V27.4684V27.4722V27.476V27.4797V27.4835V27.4873V27.4911V27.4949V27.4986V27.5024V27.5062V27.51V27.5137V27.5175V27.5213V27.5251V27.5289V27.5326V27.5364V27.5402V27.544V27.5478V27.5515V27.5553V27.5591V27.5629V27.5667V27.5705V27.5742V27.578V27.5818V27.5856V27.5894V27.5931V27.5969V27.6007V27.6045V27.6083V27.6121V27.6158V27.6196V27.6234V27.6272V27.631V27.6348V27.6386V27.6423V27.6461V27.6499V27.6537V27.6575V27.6613V27.6651V27.6688V27.6726V27.6764V27.6802V27.684V27.6878V27.6916V27.6954V27.6992V27.7029V27.7067V27.7105V27.7143V27.7181V27.7219V27.7257V27.7295V27.7333V27.737V27.7408V27.7446V27.7484V27.7522V27.756V27.7598V27.7636V27.7674V27.7712V27.775V27.7788V27.7825V27.7863V27.7901V27.7939V27.7977V27.8015V27.8053V27.8091V27.8129V27.8167V27.8205V27.8243V27.8281V27.8319V27.8357V27.8395V27.8433V27.8471V27.8509V27.8547V27.8584V27.8622V27.866V27.8698V27.8736V27.8774V27.8812V27.885V27.8888V27.8926V27.8964V27.9002V27.904V27.9078V27.9116V27.9154V27.9192V27.923V27.9268V27.9306V27.9344V27.9382V27.942V27.9458V27.9496V27.9534V27.9572V27.961V27.9648V27.9686V27.9724V27.9762V27.9801V27.9839V27.9877V27.9915V27.9953V27.9991V28.0029V28.0067V28.0105V28.0143V28.0181V28.0219V28.0257V28.0295V28.0333V28.0371V28.0409V28.0447V28.0485V28.0524V28.0562V28.06V28.0638V28.0676V28.0714V28.0752V28.079V28.0828V28.0866V28.0904V28.0942V28.0981V28.1019V28.1057V28.1095V28.1133V28.1171V28.1209V28.1247V28.1285V28.1323V28.1362V28.14V28.1438V28.1476V28.1514V28.1552V28.159V28.1628V28.1667V28.1705V28.1743V28.1781V28.1819V28.1857V28.1895V28.1933V28.1972V28.201V28.2048V28.2086V28.2124V28.2162V28.2201V28.2239V28.2277V28.2315V28.2353V28.2391V28.243V28.2468V28.2506V28.2544V28.2582V28.262V28.2659V28.2697V28.2735V28.2773V28.2811V28.285V28.2888V28.2926V28.2964V28.3002V28.3041V28.3079V28.3117V28.3155V28.3193V28.3232V28.327V28.3308V28.3346V28.3384V28.3423V28.3461V28.3499V28.3537V28.3576V28.3614V28.3652V28.369V28.3728V28.3767V28.3805V28.3843V28.3881V28.392V28.3958V28.3996V28.4034V28.4073V28.4111V28.4149V28.4187V28.4226V28.4264V28.4302V28.4341V28.4379V28.4417V28.4455V28.4494V28.4532V28.457V28.4608V28.4647V28.4685V28.4723V28.4762V28.48V28.4838V28.4876V28.4915V28.4953V28.4991V28.503V28.5068V28.5106V28.5145V28.5183V28.5221V28.526V28.5298V28.5336V28.5375V28.5413V28.5451V28.5489V28.5528V28.5566V28.5604V28.5643V28.5681V28.5719V28.5758V28.5796V28.5835V28.5873V28.5911V28.595V28.5988V28.6026V28.6065V28.6103V28.6141V28.618V28.6218V28.6256V28.6295V28.6333V28.6372V28.641V28.6448V28.6487V28.6525V28.6563V28.6602V28.664V28.6679V28.6717V28.6755V28.6794V28.6832V28.6871V28.6909V28.6947V28.6986V28.7024V28.7063V28.7101V28.7139V28.7178V28.7216V28.7255V28.7293V28.7332V28.737V28.7408V28.7447V28.7485V28.7524V28.7562V28.7601V28.7639V28.7677V28.7716V28.7754V28.7793V28.7831V28.787V28.7908V28.7947V28.7985V28.8024V28.8062V28.81V28.8139V28.8177V28.8216V28.8254V28.8293V28.8331V28.837V28.8408V28.8447V28.8485V28.8524V28.8562V28.8601V28.8639V28.8678V28.8716V28.8755V28.8793V28.8832V28.887V28.8909V28.8947V28.8986V28.9024V28.9063V28.9101V28.914V28.9178V28.9217V28.9255V28.9294V28.9332V28.9371V28.9409V28.9448V28.9486V28.9525V28.9563V28.9602V28.9641V28.9679V28.9718V28.9756V28.9795V28.9833V28.9872V28.991V28.9949V28.9988V29.0026V29.0065V29.0103V29.0142V29.018V29.0219V29.0258V29.0296V29.0335V29.0373V29.0412V29.045V29.0489V29.0528V29.0566V29.0605V29.0643V29.0682V29.0721V29.0759V29.0798V29.0836V29.0875V29.0914V29.0952V29.0991V29.1029V29.1068V29.1107V29.1145V29.1184V29.1222V29.1261V29.13V29.1338V29.1377V29.1416V29.1454V29.1493V29.1532V29.157V29.1609V29.1647V29.1686V29.1725V29.1763V29.1802V29.1841V29.1879V29.1918V29.1957V29.1995V29.2034V29.2073V29.2111V29.215V33.115C58.295 33.3721 58.3202 34.3423 58.3701 36.0159L58.3701 36.0159L58.3703 36.0202C58.3955 36.5932 58.408 37.0637 58.408 37.433C58.408 39.5079 58.3704 41.1847 58.2955 42.4655C58.2201 43.7554 58.1081 44.6177 57.9687 45.0805L57.9687 45.0805L57.9675 45.0847C57.8356 45.5474 57.5968 45.8596 57.2605 46.0529C57.1886 46.0942 57.0287 46.1585 56.7553 46.2437C56.4895 46.3266 56.1371 46.4232 55.6964 46.5335C54.8154 46.754 53.5932 47.0266 52.0281 47.3513L52.028 47.3511L52.018 47.3535C51.5831 47.4595 51.2224 47.6037 51.0096 47.8212L51.0094 47.8214C50.8005 48.0352 50.7361 48.353 50.736 48.6853M85.3277 31.7466L68.114 49.262L62.4409 49.4498L62.434 49.4501L62.434 49.45C57.4202 49.5 54.4849 49.525 53.631 49.525C52.8904 49.525 52.1586 49.4981 51.4357 49.4442L51.4344 49.4441C51.2436 49.429 51.0655 49.3423 50.936 49.2014C50.8066 49.0607 50.7352 48.8764 50.736 48.6853M83.7325 26.497C83.7327 26.497 83.7329 26.497 83.7331 26.497L83.732 26.7965V26.497H83.7325ZM83.7325 26.497H90.1112M90.1112 26.497C90.1108 26.497 90.1105 26.497 90.1102 26.497L90.112 26.7967V26.497H90.1112ZM50.736 48.6853C50.736 48.685 50.736 48.6847 50.736 48.6844L51.036 48.686H50.736C50.736 48.6858 50.736 48.6855 50.736 48.6853Z" stroke="white" stroke-width="0.6"/>
<path d="M70.6452 2.375L70.643 2.375C68.7821 2.36251 66.9263 2.56961 65.1139 2.99199C65.0785 3.00049 65.047 3.02058 65.0244 3.04906C65.0019 3.07738 64.9894 3.11238 64.989 3.14852C64.9992 5.27206 65.169 15.7988 65.2281 19.4684C65.2333 19.7901 65.2377 20.0592 65.241 20.2652L65.241 20.2654C65.2425 20.3662 65.224 20.4663 65.1865 20.5598C65.149 20.6534 65.0932 20.7385 65.0225 20.8103C64.9518 20.8821 64.8675 20.9392 64.7745 20.9781C64.6816 21.017 64.5818 21.037 64.481 21.037C64.481 21.037 64.481 21.037 64.481 21.037H59.01H59.0094C58.8096 21.0366 58.6179 20.9577 58.4757 20.8173C58.3335 20.677 58.2521 20.4864 58.249 20.2866L58.249 20.2857C58.2117 17.2686 58.1541 14.4787 58.0761 11.9161L58.0759 11.9085H58.076L58.038 4.36771L58.0163 3.81937C58.0163 3.8193 58.0163 3.81924 58.0163 3.81917C58.0146 3.78138 57.9998 3.74536 57.9743 3.71743C57.9487 3.68946 57.9141 3.67138 57.8766 3.6664L57.8755 3.66626C55.9115 3.39877 54.1693 3.22988 52.6483 3.15892C51.9057 3.15008 51.1648 3.08668 50.4316 2.96923L50.4267 2.96845L50.4267 2.96841C50.2505 2.93723 50.091 2.84479 49.9763 2.70743C49.8618 2.57026 49.7994 2.3971 49.8 2.21843M70.6452 2.375L81.9276 21.038L81.929 20.738V21.038H81.928C82.0498 21.0385 82.17 21.0096 82.2782 20.9538C87.1089 18.4695 89.6246 15.3934 89.626 11.6981V11.698C89.626 9.34994 88.8951 7.212 87.4401 5.29277C85.9767 3.36246 83.7677 1.93543 80.8428 0.995388L80.8414 0.994942C78.8139 0.354357 75.6539 0.0416709 71.3871 0.0410034H71.387C69.0305 0.0410034 67.0374 0.131382 65.5798 0.197482C65.0947 0.219479 64.6689 0.238787 64.3087 0.251169L64.306 0.251286C63.4463 0.288644 62.6156 0.321386 61.8093 0.353167C59.2152 0.455418 56.8735 0.547717 54.6299 0.751773M70.6452 2.375C72.893 2.3739 75.1261 2.73677 77.2579 3.44952L77.2579 3.44955L77.2621 3.45089C78.4309 3.82273 79.4941 4.46819 80.3633 5.3336L80.3641 5.33437C81.1617 6.12273 81.7563 7.09263 82.0972 8.16103M70.6452 2.375L82.592 11.2854M49.8 2.21843C49.8 2.21818 49.8 2.21793 49.8 2.21768L50.1 2.219H49.8V2.21843ZM49.8 2.21843V1.8V1.79431L49.8001 1.79431C49.8033 1.62162 49.8653 1.45519 49.9759 1.32245C50.0863 1.18976 50.2387 1.09864 50.4078 1.0641C50.6708 1.01008 50.8984 0.972012 51.0861 0.952596L51.1 0.951158L51.1001 0.951483L54.6299 0.751773M54.6299 0.751773C54.6282 0.751928 54.6265 0.752083 54.6248 0.752239L54.652 1.051L54.6351 0.751483L54.6299 0.751773ZM78.1477 19.6407C78.0096 19.7296 77.9041 19.8608 77.8469 20.0147C77.7897 20.1686 77.784 20.3369 77.8306 20.4943C77.8771 20.6518 77.9735 20.7899 78.1052 20.8879C78.2368 20.9858 78.3965 21.0385 78.5605 21.038H78.56V20.738L78.5611 21.038L78.31 19.893M78.1477 19.6407C78.1476 19.6408 78.1474 19.6409 78.1473 19.641L78.31 19.893M78.1477 19.6407L78.31 19.893M78.1477 19.6407C78.7561 19.2478 79.2999 18.7629 79.7597 18.2032M78.31 19.893C78.9449 19.4831 79.5124 18.9771 79.992 18.393M79.7597 18.2032C79.7595 18.2035 79.7593 18.2037 79.7591 18.2039L79.992 18.393M79.7597 18.2032C81.6623 15.8588 82.5919 13.5544 82.592 11.2854M79.7597 18.2032C79.7598 18.203 79.76 18.2028 79.7602 18.2026L79.992 18.393M79.992 18.393L82.592 11.2854M82.592 11.2854C82.592 11.2859 82.592 11.2863 82.592 11.2867L82.892 11.285H82.592C82.592 11.2851 82.592 11.2853 82.592 11.2854ZM82.592 11.2854C82.5858 10.2249 82.4189 9.17153 82.0972 8.16103M82.0972 8.16103C82.0972 8.16108 82.0972 8.16112 82.0972 8.16117L82.383 8.07L82.0972 8.16103ZM64.941 20.27C64.9377 20.0643 64.9334 19.7958 64.9282 19.4746C64.869 15.8057 64.6991 5.26929 64.689 3.148C64.6896 3.04424 64.725 2.94367 64.7895 2.86242C64.8541 2.78118 64.9441 2.72398 65.045 2.7L64.941 20.27Z" stroke="white" stroke-width="0.6"/>
<path d="M2.229 25.071C1.96852 24.9741 1.74408 24.7996 1.586 24.571C1.43421 24.3324 1.35756 24.0537 1.366 23.771V23.671C1.35744 23.3883 1.43409 23.1096 1.586 22.871C1.74379 22.6421 1.96833 22.4675 2.229 22.371C2.44558 22.2903 2.67106 22.2377 2.9 22.2139V21.8H3.593V22.2133C3.8226 22.2368 4.04877 22.2893 4.266 22.37C4.52667 22.4665 4.75121 22.6411 4.909 22.87C5.06126 23.1084 5.13826 23.3872 5.13 23.67V23.77C5.13814 24.0528 5.06114 24.3315 4.909 24.57C4.75092 24.7986 4.52647 24.9731 4.266 25.07C4.04873 25.1504 3.82257 25.2027 3.593 25.226V25.635H2.9V25.2261C2.67115 25.2029 2.44567 25.1509 2.229 25.071ZM2.9 22.8078C2.66132 22.8402 2.46677 22.9085 2.317 23.012C2.21056 23.0841 2.12454 23.1825 2.06726 23.2976C2.00997 23.4127 1.98336 23.5406 1.99 23.669V23.769C1.98353 23.8972 2.01023 24.0249 2.06751 24.1399C2.12479 24.2548 2.21071 24.353 2.317 24.425C2.46677 24.5292 2.66132 24.5972 2.9 24.6294V22.8078ZM3.593 24.6297C3.83265 24.5977 4.02765 24.5296 4.178 24.425C4.28428 24.353 4.37021 24.2548 4.42749 24.1399C4.48477 24.0249 4.51146 23.8972 4.505 23.769V23.669C4.51164 23.5406 4.48503 23.4127 4.42774 23.2976C4.37046 23.1825 4.28443 23.0841 4.178 23.012C4.02765 22.9081 3.83265 22.8397 3.593 22.8074V24.6297Z" fill="#DBB623"/>
<path d="M2.229 25.071C1.96852 24.9741 1.74408 24.7996 1.586 24.571C1.43421 24.3324 1.35756 24.0537 1.366 23.771V23.671C1.35744 23.3883 1.43409 23.1096 1.586 22.871C1.74379 22.6421 1.96833 22.4675 2.229 22.371C2.44558 22.2903 2.67106 22.2377 2.9 22.2139V21.8H3.593V22.2133C3.8226 22.2368 4.04877 22.2893 4.266 22.37C4.52667 22.4665 4.75121 22.6411 4.909 22.87C5.06126 23.1084 5.13826 23.3872 5.13 23.67V23.77C5.13814 24.0528 5.06114 24.3315 4.909 24.57C4.75092 24.7986 4.52647 24.9731 4.266 25.07C4.04873 25.1504 3.82257 25.2027 3.593 25.226V25.635H2.9V25.2261C2.67115 25.2029 2.44567 25.1509 2.229 25.071ZM2.9 22.8078C2.66132 22.8402 2.46677 22.9085 2.317 23.012C2.21056 23.0841 2.12454 23.1825 2.06726 23.2976C2.00997 23.4127 1.98336 23.5406 1.99 23.669V23.769C1.98353 23.8972 2.01023 24.0249 2.06751 24.1399C2.12479 24.2548 2.21071 24.353 2.317 24.425C2.46677 24.5292 2.66132 24.5972 2.9 24.6294V22.8078ZM3.593 24.6297C3.83265 24.5977 4.02765 24.5296 4.178 24.425C4.28428 24.353 4.37021 24.2548 4.42749 24.1399C4.48477 24.0249 4.51146 23.8972 4.505 23.769V23.669C4.51164 23.5406 4.48503 23.4127 4.42774 23.2976C4.37046 23.1825 4.28443 23.0841 4.178 23.012C4.02765 22.9081 3.83265 22.8397 3.593 22.8074V24.6297Z" stroke="white"/>
<path d="M10.623 21.864H11.067L12.477 25.572H11.755L11.5361 24.945H10.1531L9.934 25.572H9.21301L10.623 21.864ZM11.311 24.3L10.845 22.965L10.3785 24.3H11.311Z" fill="#DBB623"/>
<path d="M10.623 21.864H11.067L12.477 25.572H11.755L11.5361 24.945H10.1531L9.934 25.572H9.21301L10.623 21.864ZM11.311 24.3L10.845 22.965L10.3785 24.3H11.311Z" stroke="white"/>
<path d="M17.124 21.864H17.376H17.794H19.49V22.509H17.794V23.289H18.6C18.8116 23.2844 19.0209 23.3329 19.209 23.43C19.3809 23.5202 19.5222 23.6594 19.615 23.83C19.7084 24.0171 19.757 24.2234 19.757 24.4325C19.757 24.6416 19.7084 24.8479 19.615 25.035C19.5218 25.2053 19.3807 25.3444 19.209 25.435C19.0209 25.5321 18.8116 25.5805 18.6 25.576H17.435V25.572H17.124V21.864ZM17.794 23.934V24.926H18.62C18.702 24.9278 18.783 24.907 18.854 24.866C18.9222 24.8255 18.9769 24.7656 19.011 24.694C19.0498 24.6122 19.069 24.5225 19.067 24.432C19.0689 24.341 19.0501 24.2507 19.012 24.168C18.9785 24.0957 18.9242 24.0352 18.856 23.994C18.7843 23.9527 18.7027 23.9319 18.62 23.934H17.794Z" fill="#DBB623"/>
<path d="M17.124 21.864H17.376H17.794H19.49V22.509H17.794V23.289H18.6C18.8116 23.2844 19.0209 23.3329 19.209 23.43C19.3809 23.5202 19.5222 23.6594 19.615 23.83C19.7084 24.0171 19.757 24.2234 19.757 24.4325C19.757 24.6416 19.7084 24.8479 19.615 25.035C19.5218 25.2053 19.3807 25.3444 19.209 25.435C19.0209 25.5321 18.8116 25.5805 18.6 25.576H17.435V25.572H17.124V21.864ZM17.794 23.934V24.926H18.62C18.702 24.9278 18.783 24.907 18.854 24.866C18.9222 24.8255 18.9769 24.7656 19.011 24.694C19.0498 24.6122 19.069 24.5225 19.067 24.432C19.0689 24.341 19.0501 24.2507 19.012 24.168C18.9785 24.0957 18.9242 24.0352 18.856 23.994C18.7843 23.9527 18.7027 23.9319 18.62 23.934H17.794Z" stroke="white"/>
<path d="M24.721 21.864H25.032H25.391H26.2C26.4109 21.8597 26.6196 21.9081 26.807 22.005C26.9781 22.0967 27.1194 22.2355 27.214 22.405C27.3087 22.5896 27.3581 22.7941 27.3581 23.0015C27.3581 23.209 27.3087 23.4134 27.214 23.598C27.1201 23.768 26.9786 23.907 26.807 23.998C26.6195 24.0945 26.4109 24.1427 26.2 24.138H25.391V25.572H24.721V21.864ZM25.391 22.509V23.488H26.218C26.2999 23.4898 26.3806 23.4687 26.451 23.427C26.5184 23.3855 26.5728 23.3259 26.608 23.255C26.6463 23.1759 26.6655 23.0889 26.664 23.001C26.666 22.9122 26.6472 22.8242 26.609 22.744C26.5758 22.6719 26.5218 22.6113 26.454 22.57C26.3825 22.5282 26.3008 22.507 26.218 22.509H25.391Z" fill="#DBB623"/>
<path d="M24.721 21.864H25.032H25.391H26.2C26.4109 21.8597 26.6196 21.9081 26.807 22.005C26.9781 22.0967 27.1194 22.2355 27.214 22.405C27.3087 22.5896 27.3581 22.7941 27.3581 23.0015C27.3581 23.209 27.3087 23.4134 27.214 23.598C27.1201 23.768 26.9786 23.907 26.807 23.998C26.6195 24.0945 26.4109 24.1427 26.2 24.138H25.391V25.572H24.721V21.864ZM25.391 22.509V23.488H26.218C26.2999 23.4898 26.3806 23.4687 26.451 23.427C26.5184 23.3855 26.5728 23.3259 26.608 23.255C26.6463 23.1759 26.6655 23.0889 26.664 23.001C26.666 22.9122 26.6472 22.8242 26.609 22.744C26.5758 22.6719 26.5218 22.6113 26.454 22.57C26.3825 22.5282 26.3008 22.507 26.218 22.509H25.391Z" stroke="white"/>
<path d="M34.4 25.57V22.7992L32.994 25.57H32.224V21.87H32.869V24.6817L34.284 21.868H35.049V25.568L34.4 25.57Z" fill="#DBB623"/>
<path d="M34.4 25.57V22.7992L32.994 25.57H32.224V21.87H32.869V24.6817L34.284 21.868H35.049V25.568L34.4 25.57Z" stroke="white"/>
<path d="M39.77 21.864H40.44V23.409H40.8663L41.76 21.866H42.543L41.4318 23.7214L42.698 25.572H41.847L40.8641 24.052H40.44V25.572H39.77V21.864Z" fill="#DBB623"/>
<path d="M39.77 21.864H40.44V23.409H40.8663L41.76 21.866H42.543L41.4318 23.7214L42.698 25.572H41.847L40.8641 24.052H40.44V25.572H39.77V21.864Z" stroke="white"/>
<path d="M48.609 21.818H49.052L50.463 25.526H49.741L49.5224 24.9H48.1388L47.92 25.526H47.2L48.609 21.818ZM49.2958 24.251L48.831 22.92L48.3657 24.251H49.2958Z" fill="#DBB623"/>
<path d="M48.609 21.818H49.052L50.463 25.526H49.741L49.5224 24.9H48.1388L47.92 25.526H47.2L48.609 21.818ZM49.2958 24.251L48.831 22.92L48.3657 24.251H49.2958Z" stroke="white"/>
<path d="M58.113 21.8H58.419H58.783H59.619C59.8293 21.7942 60.0382 21.8348 60.231 21.919C60.392 21.9905 60.5263 22.1108 60.615 22.263C60.7065 22.4286 60.7518 22.6158 60.746 22.805C60.7483 22.9359 60.7195 23.0654 60.662 23.183C60.6061 23.2949 60.522 23.3904 60.418 23.46C60.3 23.5372 60.1666 23.5878 60.027 23.608C60.1753 23.6248 60.3175 23.6766 60.442 23.759C60.5546 23.8338 60.645 23.9374 60.704 24.059C60.7666 24.1925 60.7977 24.3386 60.795 24.486V24.5C60.8002 24.6898 60.7539 24.8774 60.661 25.043C60.5703 25.1961 60.4344 25.3173 60.272 25.39C60.0803 25.4744 59.8724 25.5154 59.663 25.51H58.419V25.508H58.113V21.8ZM58.783 22.446V23.288H59.594C59.7211 23.2964 59.8467 23.256 59.945 23.175C59.9875 23.1331 60.0206 23.0826 60.042 23.0269C60.0634 22.9712 60.0726 22.9116 60.069 22.852C60.0724 22.7956 60.0627 22.7391 60.0407 22.6871C60.0187 22.635 59.9849 22.5888 59.942 22.552C59.8391 22.4751 59.7121 22.4375 59.584 22.446H58.783ZM58.783 23.931V24.865H59.574C59.7175 24.8739 59.8595 24.831 59.974 24.744C60.0211 24.7013 60.058 24.6486 60.082 24.5897C60.1061 24.5309 60.1167 24.4674 60.113 24.404V24.4C60.1154 24.3115 60.0947 24.224 60.053 24.146C60.0125 24.0752 59.9505 24.0192 59.876 23.986C59.7859 23.9467 59.6882 23.9279 59.59 23.931H58.783Z" fill="#DBB623"/>
<path d="M58.113 21.8H58.419H58.783H59.619C59.8293 21.7942 60.0382 21.8348 60.231 21.919C60.392 21.9905 60.5263 22.1108 60.615 22.263C60.7065 22.4286 60.7518 22.6158 60.746 22.805C60.7483 22.9359 60.7195 23.0654 60.662 23.183C60.6061 23.2949 60.522 23.3904 60.418 23.46C60.3 23.5372 60.1666 23.5878 60.027 23.608C60.1753 23.6248 60.3175 23.6766 60.442 23.759C60.5546 23.8338 60.645 23.9374 60.704 24.059C60.7666 24.1925 60.7977 24.3386 60.795 24.486V24.5C60.8002 24.6898 60.7539 24.8774 60.661 25.043C60.5703 25.1961 60.4344 25.3173 60.272 25.39C60.0803 25.4744 59.8724 25.5154 59.663 25.51H58.419V25.508H58.113V21.8ZM58.783 22.446V23.288H59.594C59.7211 23.2964 59.8467 23.256 59.945 23.175C59.9875 23.1331 60.0206 23.0826 60.042 23.0269C60.0634 22.9712 60.0726 22.9116 60.069 22.852C60.0724 22.7956 60.0627 22.7391 60.0407 22.6871C60.0187 22.635 59.9849 22.5888 59.942 22.552C59.8391 22.4751 59.7121 22.4375 59.584 22.446H58.783ZM58.783 23.931V24.865H59.574C59.7175 24.8739 59.8595 24.831 59.974 24.744C60.0211 24.7013 60.058 24.6486 60.082 24.5897C60.1061 24.5309 60.1167 24.4674 60.113 24.404V24.4C60.1154 24.3115 60.0947 24.224 60.053 24.146C60.0125 24.0752 59.9505 24.0192 59.876 23.986C59.7859 23.9467 59.6882 23.9279 59.59 23.931H58.783Z" stroke="white"/>
<path d="M66.7 21.8H67.143L68.554 25.508H67.83L67.6099 24.878H66.2283L66.009 25.506H65.287L66.7 21.8ZM67.3846 24.233L66.919 22.9L66.4535 24.233H67.3846Z" fill="#DBB623"/>
<path d="M66.7 21.8H67.143L68.554 25.508H67.83L67.6099 24.878H66.2283L66.009 25.506H65.287L66.7 21.8ZM67.3846 24.233L66.919 22.9L66.4535 24.233H67.3846Z" stroke="white"/>
<path d="M73.035 21.8H75.735V22.445H74.72V25.5H74.052V22.445H73.035V21.8Z" fill="#DBB623"/>
<path d="M73.035 21.8H75.735V22.445H74.72V25.5H74.052V22.445H73.035V21.8Z" stroke="white"/>
<path d="M82.621 25.507V22.7348L81.21 25.507H80.44V21.8H81.085V24.6127L82.5 21.8H83.265V25.506L82.621 25.507Z" fill="#DBB623"/>
<path d="M82.621 25.507V22.7348L81.21 25.507H80.44V21.8H81.085V24.6127L82.5 21.8H83.265V25.506L82.621 25.507Z" stroke="white"/>
<path d="M87.963 21.8H88.634V23.348H90.006V21.8H90.676V25.508H90.006V23.993H88.634V25.508H87.963V21.8Z" fill="#DBB623"/>
<path d="M87.963 21.8H88.634V23.348H90.006V21.8H90.676V25.508H90.006V23.993H88.634V25.508H87.963V21.8Z" stroke="white"/>
</g>
<defs>
<clipPath id="clip0_10_6">
<rect width="93.826" height="50" fill="white"/>
</clipPath>
</defs>
</svg>
