<svg id="Слой_1" data-name="Слой 1" xmlns="http://www.w3.org/2000/svg" viewBox="0 0 938.26 500"><defs><style>.cls-1{fill:#dbb623;}</style></defs><title>Монтажная область 1</title><path class="cls-1" d="M426.76,312.92Q415.48,346.4,386.52,368,358.61,388.87,296.45,390a4.6,4.6,0,0,1-4.7-4.6V272.63a4.6,4.6,0,0,0-4.6-4.6H229.26a4.6,4.6,0,0,0-4.6,4.6l.14,112.72a4.61,4.61,0,0,1-4.7,4.61q-59.17-1-86.68-19.12-28.57-18.81-41.93-53A192.52,192.52,0,0,1,80,272a4.59,4.59,0,0,0-4.56-4h-58a4.61,4.61,0,0,0-4.55,5.29Q21.38,330,59.34,364.26q47.88,43.28,159.6,44.17a4.61,4.61,0,0,1,4.59,4.75l-.6,18.2q-.37,21.83-4.51,29.9T195.1,472.94q-19.18,3.58-24.07,3.95-19.83.63-25.17,3.89a4.52,4.52,0,0,0-1.93,2.7,31.41,31.41,0,0,0-.87,5,4.6,4.6,0,0,0,4.48,5.06l46.06,1,64.68-.75,64.68.75,45.71-.68a4.62,4.62,0,0,0,4.53-4.94,45,45,0,0,0-.64-5.15,4.59,4.59,0,0,0-2.26-3.15q-5.64-3.12-24.77-3.75a122.53,122.53,0,0,1-28-4.33q-14.86-3.94-19.37-11.47t-4.89-28.95q0-6.67-.53-19a4.61,4.61,0,0,1,4.52-4.81q119.11-2.31,163.37-47.12,34.47-34.9,42.6-87.92a4.61,4.61,0,0,0-4.56-5.3H440.71a4.58,4.58,0,0,0-4.56,4A213.37,213.37,0,0,1,426.76,312.92Z"/><path class="cls-1" d="M224.44,93.78l.14,109a4.59,4.59,0,0,0,4.6,4.59h58a4.6,4.6,0,0,0,4.6-4.6v-109a4.62,4.62,0,0,1,5-4.59q120.36,11.05,138.14,114.4a4.58,4.58,0,0,0,4.53,3.79h58.12a4.59,4.59,0,0,0,4.51-5.51q-10.8-51.81-53.8-84.33Q392.22,75.16,297.16,74.14a4.61,4.61,0,0,1-4.58-4.7q.94-35.41,11-38.95,10.66-3.75,45.11-7.14,15.83-1.65,21.91-2.69a4.61,4.61,0,0,0,3.77-3.92c.14-1,.26-2,.34-3A4.58,4.58,0,0,0,370,8.78L258.28,10.94,146.2,8.78a4.59,4.59,0,0,0-4.69,4.92c.09,1,.2,2,.34,3a4.62,4.62,0,0,0,3.8,3.93q6.19,1,22,2.71,36.84,3.76,46.44,7.52,9,3.54,10.22,38.53a4.6,4.6,0,0,1-4.58,4.74q-95.22,1-151.55,43.41Q25,150.07,14.11,201.87a4.59,4.59,0,0,0,4.51,5.52h58.1a4.58,4.58,0,0,0,4.53-3.79Q99,100.27,219.4,89.2A4.62,4.62,0,0,1,224.44,93.78Z"/><path class="cls-1" d="M835.07,277a100.25,100.25,0,0,1,21.1,39.67q6.21,22.57,6.22,38,0,20.29-8.86,42.12a108.51,108.51,0,0,1-24.86,37.41q-16,15.62-27.69,21.63Q775.81,469,738.65,471.61h-.41q-47.31-.39-64.79-12t-20.53-27.83q-3-16.17-4.14-104.55v-32l.3-22.56a4.6,4.6,0,0,0-4.6-4.66H590.55a4.6,4.6,0,0,0-4.6,4.6q0,9.64,0,19.54v39q0,3.77.75,28.92.38,8.63.38,14.26,0,62.33-4.52,77.34-2.25,7.89-8.46,11.46t-53.21,13.32q-6.4,1.56-8.65,3.86c-1.26,1.29-1.88,3.48-1.88,6.55h0a4.58,4.58,0,0,0,4.22,4.59q10.73.8,21.73.8,12.78,0,88-.75l56.78-1.88h56q89.49,0,140.46-43.85t51-99.91q0-33.5-10.16-54.19a130.4,130.4,0,0,0-13.63-21.93,4.57,4.57,0,0,0-3.64-1.77H837.32a4.59,4.59,0,0,0-3.42,7.67C834.3,276.13,834.69,276.57,835.07,277Z"/><path class="cls-1" d="M646.89,31.48A4.63,4.63,0,0,1,650.45,27a239.61,239.61,0,0,1,56-6.25,211.22,211.22,0,0,1,67.08,10.9,80.07,80.07,0,0,1,32.22,19.56A72.4,72.4,0,0,1,823.83,80.7a108,108,0,0,1,5.09,32.15q0,35.35-29,71.08a73,73,0,0,1-16.82,15,4.59,4.59,0,0,0,2.5,8.45h33.69a4.57,4.57,0,0,0,2.12-.51q71.83-36.94,71.85-89.89,0-34.21-21.25-62.24t-64.5-41.93q-29.72-9.39-93.64-9.4c-31.34,0-56.15,1.6-70.68,2.1-36.36,1.58-67.34,2.33-96.67,5l-35.35,2c-1.74.18-3.91.54-6.49,1.07A4.6,4.6,0,0,0,501,18v4.19a4.59,4.59,0,0,0,3.79,4.54,148.57,148.57,0,0,0,21.78,1.86q23,1.07,52.59,5.1a4.61,4.61,0,0,1,4,4.38l.22,5.54.38,75.46q1.17,38.47,1.73,83.75a4.62,4.62,0,0,0,4.61,4.55h54.71a4.6,4.6,0,0,0,4.6-4.67C649,177.15,647,54.55,646.89,31.48Z"/><path class="cls-1" d="M22.29,250.71a13.57,13.57,0,0,1-6.43-5,14.12,14.12,0,0,1-2.2-8v-1a14.1,14.1,0,0,1,2.2-8,13.51,13.51,0,0,1,6.43-5A27.33,27.33,0,0,1,32.48,222a27.31,27.31,0,0,1,10.18,1.7,13.51,13.51,0,0,1,6.43,5,14.1,14.1,0,0,1,2.21,8v1a14.12,14.12,0,0,1-2.21,8,13.57,13.57,0,0,1-6.43,5,27.32,27.32,0,0,1-10.18,1.69A27.34,27.34,0,0,1,22.29,250.71Zm19.49-6.46a7.47,7.47,0,0,0,3.27-6.56v-1a7.47,7.47,0,0,0-3.27-6.57c-2.17-1.5-5.27-2.26-9.3-2.26s-7.14.76-9.31,2.26a7.47,7.47,0,0,0-3.27,6.57v1a7.47,7.47,0,0,0,3.27,6.56c2.17,1.51,5.28,2.26,9.31,2.26S39.61,245.76,41.78,244.25ZM29,218h6.93v38.35H29Z"/><path class="cls-1" d="M106.23,218.64h4.44l14.1,37.08h-7.22l-9.1-26.07-9.11,26.07H92.13ZM98.86,243h19.51v6.45H98.86Z"/><path class="cls-1" d="M171.24,218.64h6.7v37.08h-6.7Zm2.52,0H194.9v6.45H173.76Zm.59,30.62H186.2a4.48,4.48,0,0,0,2.34-.6,4,4,0,0,0,1.57-1.72,5.81,5.81,0,0,0,.56-2.62,6,6,0,0,0-.55-2.64,4,4,0,0,0-1.56-1.74,4.5,4.5,0,0,0-2.36-.6H174.35v-6.45H186a12.68,12.68,0,0,1,6.09,1.41,9.82,9.82,0,0,1,4.06,4,13.49,13.49,0,0,1,0,12.05,9.89,9.89,0,0,1-4.06,4,12.68,12.68,0,0,1-6.09,1.41H174.35Z"/><path class="cls-1" d="M247.21,218.64h6.7v37.08h-6.7Zm3.11,16.24h11.86a4.38,4.38,0,0,0,2.33-.61,4.22,4.22,0,0,0,1.57-1.72,5.62,5.62,0,0,0,.56-2.54,5.68,5.68,0,0,0-.55-2.57,4,4,0,0,0-1.55-1.74,4.46,4.46,0,0,0-2.36-.61H250.32v-6.45H262a12.65,12.65,0,0,1,6.07,1.41,10.15,10.15,0,0,1,4.07,4,13.07,13.07,0,0,1,0,11.93,10,10,0,0,1-4.07,4,12.65,12.65,0,0,1-6.07,1.4H250.32Z"/><path class="cls-1" d="M344,255.7V226.12l.61.67L329.94,255.7h-7.7v-37h6.45v30l-.61-.67,14.76-29.35h7.65v37Z"/><path class="cls-1" d="M397.7,218.64h6.7v37.08h-6.7Zm3,15.45h12.87v6.43H400.66Zm7.21,5.3,6.07-2.67,13,19h-8.51Zm0-4,9.69-16.73h7.83l-12.75,21.29Z"/><path class="cls-1" d="M486.09,218.18h4.43l14.11,37.08h-7.22l-9.1-26.06-9.11,26.06H472Zm-7.37,24.33h19.51V249H478.72Z"/><path class="cls-1" d="M581.13,218h6.7v37.08h-6.7Zm3.06,30.65h11.55a6,6,0,0,0,4-1.21,4.26,4.26,0,0,0,1.39-3.4V244a5.1,5.1,0,0,0-.6-2.54,3.84,3.84,0,0,0-1.77-1.6,6.63,6.63,0,0,0-2.86-.55H584.19v-6.43h11.75a5,5,0,0,0,3.51-1.13,4.18,4.18,0,0,0,1.24-3.23,3.66,3.66,0,0,0-1.27-3,5.39,5.39,0,0,0-3.58-1.06H584.19V218h12a14.3,14.3,0,0,1,6.12,1.19,8.38,8.38,0,0,1,3.84,3.44,10.54,10.54,0,0,1,1.31,5.42,8.28,8.28,0,0,1-.84,3.78,7.21,7.21,0,0,1-2.44,2.77,9.67,9.67,0,0,1-3.91,1.48,9.45,9.45,0,0,1,4.15,1.51,7.56,7.56,0,0,1,2.62,3,9.63,9.63,0,0,1,.91,4.27V245a10.51,10.51,0,0,1-1.34,5.43,8.61,8.61,0,0,1-3.89,3.47,14.2,14.2,0,0,1-6.09,1.2H584.19Z"/><path class="cls-1" d="M667,218h4.43l14.11,37.08H678.3L669.19,229l-9.1,26.06h-7.22Zm-7.37,24.33h19.51v6.45H659.61Z"/><path class="cls-1" d="M730.35,218h27v6.45h-27Zm10.17,3h6.68v34h-6.68Z"/><path class="cls-1" d="M826.21,255.07V225.48l.61.67L812.1,255.07h-7.7V218h6.45v30l-.61-.66L825,218h7.65v37.06Z"/><path class="cls-1" d="M879.63,218h6.71v37.08h-6.71Zm3.24,15.48h21.45v6.45H882.87ZM900.06,218h6.7v37.08h-6.7Z"/></svg>